<?xml version="1.0" standalone="no"?>
<!DOCTYPE svg PUBLIC "-//W3C//DTD SVG 20010904//EN"
 "http://www.w3.org/TR/2001/REC-SVG-20010904/DTD/svg10.dtd">
<svg version="1.0" xmlns="http://www.w3.org/2000/svg"
 width="1024.000000pt" height="1024.000000pt" viewBox="0 0 1024.000000 1024.000000"
 preserveAspectRatio="xMidYMid meet">

<g transform="translate(0.000000,1024.000000) scale(0.100000,-0.100000)"
fill="#000000" stroke="none">
<path d="M4835 8924 c-434 -59 -855 -241 -1174 -509 -95 -79 -270 -258 -343
-350 -308 -388 -487 -893 -489 -1383 -2 -243 61 -505 241 -1007 262 -734 645
-1601 1515 -3425 169 -355 336 -708 371 -785 76 -164 102 -195 169 -195 75 0
86 17 273 415 93 198 287 605 429 905 995 2086 1457 3215 1579 3855 20 105 22
332 5 465 -44 328 -141 619 -294 881 -370 634 -992 1045 -1716 1135 -142 17
-431 17 -566 -2z m480 -234 c639 -60 1220 -419 1557 -963 259 -417 366 -945
273 -1352 -113 -498 -443 -1330 -1050 -2645 -161 -349 -299 -642 -781 -1653
l-189 -398 -36 78 c-20 43 -157 330 -304 638 -914 1915 -1318 2837 -1556 3555
-132 399 -166 570 -156 790 53 1168 1078 2059 2242 1950z"/>
<path d="M4988 7859 c-281 -34 -522 -152 -724 -353 -380 -378 -470 -937 -229
-1416 267 -530 890 -793 1454 -615 317 100 584 328 731 622 88 177 125 337
125 548 -1 260 -64 469 -208 685 -73 110 -252 282 -366 352 -227 139 -531 208
-783 177z m385 -268 c163 -43 323 -136 443 -255 144 -144 243 -336 274 -530
18 -110 8 -331 -20 -425 -102 -354 -382 -616 -745 -698 -107 -24 -308 -21
-418 5 -363 89 -635 355 -733 717 -15 57 -19 103 -18 245 0 161 2 182 27 263
109 354 383 610 737 688 116 26 339 21 453 -10z"/>
</g>
</svg>
